<?xml version="1.0" encoding="utf-8"?>
<!-- Generator: Adobe Illustrator 27.1.0, SVG Export Plug-In . SVG Version: 6.00 Build 0)  -->
<svg version="1.0" id="Capa_1" xmlns="http://www.w3.org/2000/svg" xmlns:xlink="http://www.w3.org/1999/xlink" x="0px" y="0px"
	 viewBox="0 0 500 500" style="enable-background:new 0 0 500 500;" xml:space="preserve">
<style type="text/css">
	.st0{fill:#F1DBBF;}
</style>
<g>
	<path class="st0" d="M49.01,246.84c-0.11,102.54,71.88,187.9,169.46,203.63c104.76,16.88,204.56-49,230.05-151.88
		c5.18-20.9,14.82-29.29,29.76-25.88c14.64,3.34,20.67,16.05,15.05,36.22c-27.8,99.89-92.03,163.61-193.71,183.94
		C170.64,518.65,49.54,442.1,13.33,315.99C-26.23,178.24,64.89,31.83,206.02,6.4C340.47-17.82,463.3,63.44,495.19,197.72
		c3.17,13.34-3.75,25.92-16.09,29.27c-12.62,3.42-24.91-3.53-28.16-17.32c-10.08-42.82-30.11-79.65-62.66-109.68
		C277.62-2.14,94.95,50.72,56.05,196.18C51.36,213.71,48.39,231.36,49.01,246.84z"/>
	<path class="st0" d="M237.92,227.38c27.38,0,52.39,0.09,77.41-0.04c9.85-0.05,17.73,3.37,22.46,12.18
		c8.19,15.28-2.69,32.54-21.05,32.89c-21.79,0.42-43.59,0.11-65.39,0.11c-3.65,0-7.3,0-11.23,0c0.17,5.16,4.27,6.69,6.17,9.68
		c6.01,9.45,5.01,21.23-2.8,28.93c-7.82,7.71-20.53,9.66-28.72,2.08c-17.35-16.05-34.17-32.76-50.11-50.2
		c-8.19-8.97-6.19-20.65,3.25-30.38c13.87-14.29,27.97-28.35,42.22-42.26c10.51-10.26,23.82-10.79,33.15-1.83
		c9.36,8.99,9.18,21.77-0.48,33.18C241.82,222.87,240.84,224,237.92,227.38z"/>
</g>
</svg>
