<?xml version="1.0" encoding="utf-8"?>
<!-- Generator: Adobe Illustrator 27.1.0, SVG Export Plug-In . SVG Version: 6.00 Build 0)  -->
<svg version="1.0" id="Capa_1" xmlns="http://www.w3.org/2000/svg" xmlns:xlink="http://www.w3.org/1999/xlink" x="0px" y="0px"
	 viewBox="0 0 500 500" style="enable-background:new 0 0 500 500;" xml:space="preserve">
<style type="text/css">
	.st0{fill:#698269;}
</style>
<g>
	<path class="st0" d="M249.41,468.86c-75.57,0-151.15,0.01-226.72-0.01c-21.25-0.01-26.94-7.89-19.7-27.97
		c14.43-40.02,26.69-80.82,42.58-120.32c0.65-1.61,1.57-3.11,0.43-4.83c-6.67-10.1-4.28-21.5-4.31-32.41
		c-0.17-73.15-0.1-146.29-0.08-219.44c0.01-23.25,9.51-32.74,32.82-32.74c116.83-0.02,233.65-0.02,350.48,0
		c23.78,0,33.2,9.52,33.21,33.44c0.02,76.96-0.01,153.92,0.03,230.88c0,6.29,0.04,12.55-3.35,18.13c-1.6,2.63-1.28,4.66-0.23,7.6
		c14.92,41.69,29.67,83.44,44.2,125.27c4.03,11.6-2.18,20.8-14.34,22.18c-3.43,0.39-6.92,0.22-10.39,0.22
		C399.17,468.86,324.29,468.86,249.41,468.86z M249.75,327.79c-60.68,0-121.36,0.08-182.05-0.12c-6.59-0.02-10.78,1.03-13.18,8.2
		c-12.3,36.76-25.03,73.38-37.86,109.97c-2.08,5.93-2.31,8.58,5.43,8.53c49.24-0.27,98.48-0.21,147.72-0.02
		c5.14,0.02,7.38-1.83,8.64-6.54c2.6-9.69,5.83-19.22,8.4-28.92c2.01-7.59,6.53-10.61,14.31-10.56c32.25,0.2,64.5,0.23,96.74-0.02
		c8.18-0.06,13.03,2.83,15.09,10.95c2.29,9.05,5.49,17.88,7.77,26.93c1.48,5.86,4.07,8.25,10.59,8.21
		c48.2-0.3,96.4-0.35,144.59,0.01c8.79,0.07,9.64-2.32,6.92-9.96c-12.65-35.54-25.09-71.17-37-106.96
		c-2.55-7.66-6.24-9.92-14.07-9.88C371.12,327.93,310.44,327.79,249.75,327.79z M250.23,45.73c-58.59,0-117.19-0.02-175.78,0.01
		c-15.06,0.01-18.22,3.21-18.23,18.33c-0.02,76.97-0.03,153.94,0,230.9c0.01,14.89,3.28,18.17,18.5,18.18
		c116.84,0.04,233.68,0.04,350.52,0c14.95-0.01,18.27-3.45,18.28-18.45c0.02-76.62,0.02-153.24,0-229.86
		c0-16.23-2.95-19.1-19.6-19.1C366.03,45.72,308.13,45.73,250.23,45.73z M192.67,453.7c38.19,0,76.19,0,115.01,0
		c-2.14-7.68-4.45-14.56-5.93-21.61c-1.44-6.85-4.53-9.49-11.99-9.28c-20.79,0.6-41.6,0.21-62.4,0.21c-27.98,0-27.99,0-34.42,27.35
		C192.71,451.32,192.77,452.34,192.67,453.7z"/>
	<path class="st0" d="M250.58,387.29c-53.4,0-106.79,0-160.19-0.01c-3.12,0-6.28,0.18-9.34-0.3c-3.87-0.6-6.15-3.13-6.05-7.2
		c0.11-4.07,2.53-6.39,6.42-6.89c2.73-0.35,5.54-0.2,8.31-0.2c107.14-0.01,214.28-0.01,321.42,0c2.43,0,4.85-0.01,7.28,0.06
		c4.49,0.13,7.49,2.65,7.63,6.9c0.15,4.88-3.12,7.52-8.01,7.57c-10.75,0.1-21.5,0.06-32.25,0.06
		C340.73,387.29,295.66,387.29,250.58,387.29z"/>
	<path class="st0" d="M251,357.04c-49.54,0-99.08,0-148.62-0.01c-3.12,0-6.24,0.02-9.34-0.23c-4.25-0.34-7.38-2.29-7.38-7.01
		c0-4.68,3.06-6.74,7.31-7.17c2.75-0.28,5.54-0.2,8.31-0.2c99.43-0.01,198.85-0.01,298.28-0.01c0.35,0,0.7-0.03,1.04,0
		c5.87,0.5,14.37-1.95,14.42,7.29c0.04,9.3-8.51,7.25-14.34,7.26C350.77,357.1,300.89,357.04,251,357.04z"/>
	<path class="st0" d="M249.93,68.75c51.28,0,102.57-0.03,153.85,0.01c19.41,0.02,27.08,7.68,27.09,27.04
		c0.04,55.79,0.04,111.58,0,167.36c-0.01,18.93-7.64,26.78-26.25,26.79c-103.26,0.05-206.52,0.05-309.78,0
		c-18.16-0.01-25.94-7.86-25.96-25.95c-0.05-56.48-0.05-112.96,0-169.44c0.02-17.91,7.98-25.78,26.15-25.8
		C146.67,68.71,198.3,68.75,249.93,68.75z M249.93,83.35c-50.97,0-101.94-0.02-152.91,0.01c-12.66,0.01-13.52,0.91-13.53,13.76
		c-0.02,54.79-0.02,109.57,0,164.36c0.01,12.98,0.82,13.88,13.36,13.88c101.94,0.03,203.89,0.03,305.83,0
		c12.61,0,13.6-1.03,13.61-13.72c0.03-54.44,0.02-108.88,0.01-163.32c0-14.42-0.59-14.97-15.52-14.98
		C350.48,83.34,300.2,83.35,249.93,83.35z"/>
</g>
</svg>
